<svg xmlns="http://www.w3.org/2000/svg" viewBox="0 0 200 80" fill="none">
  <!-- Mountain silhouette representing Darjeeling hills -->
  <path d="M20 60 L40 35 L60 45 L80 25 L100 40 L120 20 L140 35 L160 30 L180 50 L200 40 L200 80 L0 80 Z" 
        fill="currentColor" 
        opacity="0.8"/>
  
  <!-- Tea leaf element -->
  <g transform="translate(85, 25)">
    <path d="M0 15 Q5 5 15 10 Q20 15 15 25 Q10 30 5 25 Q0 20 0 15 Z" 
          fill="currentColor" 
          opacity="0.9"/>
    <path d="M7 15 Q12 10 15 15" 
          stroke="currentColor" 
          stroke-width="1" 
          fill="none" 
          opacity="0.7"/>
  </g>
  
  <!-- Stylized train representing Darjeeling Himalayan Railway -->
  <g transform="translate(70, 45)">
    <!-- Train body -->
    <rect x="0" y="5" width="25" height="8" rx="2" fill="currentColor" opacity="0.7"/>
    <!-- Train chimney -->
    <rect x="3" y="2" width="3" height="5" rx="1" fill="currentColor" opacity="0.8"/>
    <!-- Train wheels -->
    <circle cx="5" cy="15" r="2" fill="currentColor" opacity="0.6"/>
    <circle cx="20" cy="15" r="2" fill="currentColor" opacity="0.6"/>
    <!-- Steam -->
    <circle cx="4" cy="0" r="1" fill="currentColor" opacity="0.3"/>
    <circle cx="6" cy="-2" r="0.8" fill="currentColor" opacity="0.2"/>
  </g>
  
  <!-- Decorative dots representing tea gardens -->
  <circle cx="30" cy="50" r="1.5" fill="currentColor" opacity="0.4"/>
  <circle cx="150" cy="45" r="1.5" fill="currentColor" opacity="0.4"/>
  <circle cx="170" cy="55" r="1" fill="currentColor" opacity="0.3"/>
</svg>