<svg width="120" height="40" viewBox="0 0 120 40" fill="none" xmlns="http://www.w3.org/2000/svg">
  <!-- Mountain silhouette background -->
  <path d="M0 25 L15 15 L25 20 L35 12 L50 18 L65 10 L80 16 L95 8 L110 14 L120 20 V40 H0 Z" fill="currentColor" opacity="0.1"/>
  
  <!-- Tea leaf elements -->
  <g transform="translate(8, 8)">
    <path d="M12 4 C8 4 6 8 8 12 C10 16 16 14 18 10 C20 6 16 4 12 4 Z" fill="currentColor" opacity="0.3"/>
    <path d="M12 6 L14 10 L12 14" stroke="currentColor" stroke-width="0.5" opacity="0.4"/>
  </g>
  
  <!-- Main text "Darjeeling Soul" -->
  <text x="30" y="16" font-family="serif" font-size="11" font-weight="600" fill="currentColor">
    Darjeeling
  </text>
  <text x="30" y="28" font-family="serif" font-size="11" font-weight="400" fill="currentColor" opacity="0.8">
    Soul
  </text>
  
  <!-- Decorative elements -->
  <circle cx="105" cy="12" r="1.5" fill="currentColor" opacity="0.6"/>
  <circle cx="108" cy="16" r="1" fill="currentColor" opacity="0.4"/>
  <circle cx="106" cy="20" r="0.8" fill="currentColor" opacity="0.5"/>
</svg>